<svg version="1.1" id="Layer_1" xmlns="http://www.w3.org/2000/svg" x="0" y="0" viewBox="0 0 128 48" xml:space="preserve"><style>.st0{fill:#262262}</style><path class="st0" d="M13.7 28V9.5c0-.6.2-.9.7-1.1l1.2-.6c1.6-.8 3.1-1.6 4.6-2.5 1-.5 1.9-1 2.9-1.5 1.2-.6 2.4-1.2 3.6-1.9l.6-.3v26.3c-.4-1-.7-1.9-1.1-2.9-.8-2.1-1.6-4.2-2.4-6.4-.3-.7-.6-1.5-.8-2.2-.1-.3-.2-.4-.5-.4h-3.7c-.2 0-.4.1-.4.3-.9 2.6-1.9 5.1-2.8 7.7-.5 1.3-.9 2.5-1.4 3.8 0 .1-.2.1-.2.2zm25.8 0c.3-.1.7-.2 1-.3.1 0 .1-.1.1-.2-.2-.7-.4-1.5-.6-2.2l-1.2.3c-1.4.2-2.9.3-4.2-.3s-1.9-1.6-1.9-3c0-1.1.3-2 1.1-2.7.6-.5 1.4-.8 2.3-.9.7-.1 1.5 0 2.3 0 .5 0 1 .2 1.5.3.2.1.3 0 .3-.2.2-.7.5-1.3.7-2 0-.1-.1-.2-.2-.3-.5-.1-1-.3-1.5-.4-1.2-.2-2.3-.2-3.5-.1-2 .2-3.9.8-5.4 2.3-.9.9-1.4 1.9-1.6 3.2 0 .1 0 .2-.1.3v-20c.3.2.7.4 1 .5 3.7 2 7.5 4 11.3 6.1.1-.1.1.1.1.3v19q0 .3-.3.3zm17 .9v2.7H1v-2.4c0-.3.1-.4.4-.4H56c.1.1.3.1.5.1M42 8.9c.8.4 1.6.8 2.3 1.3 3.4 1.8 6.8 3.7 10.2 5.5.6.3 1.1.6 1.7.9.2.1.2.2.2.4v11.2l-.2-.2c-.6-1.5-1.2-3-1.7-4.5-.8-1.9-1.5-3.8-2.3-5.7-.2-.4-.3-.9-.5-1.3-.1-.2-.2-.3-.4-.3h-4.1c-.2 0-.3.1-.4.3l-.9 2.4c-.6 1.6-1.2 3.2-1.9 4.8-.6 1.4-1.1 2.9-1.7 4.3 0 .1-.1.1-.2.2 0-.1-.1-.2-.1-.3zm-29.4.4v18.2c0 .4 0 .4-.4.4H8.6c.4-.1.8-.2 1.2-.4.9-.4 1.8-.9 2.3-1.8.7-1.2.3-2.8-.8-3.6-1-.8-2.3-1.1-3.5-1.5-.7-.2-1.3-.4-1.9-.8-.5-.3-.5-.9.1-1.1q.6-.3 1.2-.3c1.2-.1 2.4.1 3.6.5.1 0 .3 0 .3-.1.3-.7.5-1.5.8-2.2v-.2c-.5-.1-.9-.3-1.4-.4-1.5-.1-2.8-.1-4.1 0-1.4.1-2.7.4-3.8 1.3-1.6 1.3-1.6 3.3.1 4.5 1.1.8 2.4 1.1 3.7 1.5.5.1.9.3 1.3.5.3.2.5.5.5.8 0 .4-.2.6-.5.7l-1.2.3c-1.3.1-2.6-.1-3.8-.5-.5-.2-1-.5-1.5-.8-.2-.1-.2-.3-.2-.4v-8.4c0-.1.1-.2.2-.3.7-.4 1.4-.7 2.1-1.1 1.2-.6 2.5-1.3 3.7-1.9.5-.3 1.1-.6 1.6-.8 1.2-.6 2.6-1.4 4-2.1"/><path class="st0" d="M52.1 28h-5.9c.3-.9.6-1.8 1-2.7 0-.1.2-.2.3-.2h3.3c.1 0 .3.1.3.2.3.9.7 1.8 1 2.6zm-34.3 0c.3-.8.5-1.5.8-2.3.1-.2.1-.5.3-.6s.4 0 .7 0h2.6c.2 0 .3.1.4.3.3.9.6 1.7.9 2.6zM52 21.2c-.4.3-.8.6-1.1.8-.6.4-.6.4-.3 1.1.1.4.3.8.4 1.2l-.1.1c-.1 0-.2-.1-.2-.1l-1.2-.9c-.2-.2-.3-.2-.5 0-.4.4-.9.7-1.3 1 0 0-.1 0-.2.1.1-.3.2-.5.2-.7.1-.4.2-.8.4-1.1.1-.2 0-.3-.1-.4-.4-.3-.9-.6-1.3-1-.1 0-.1-.1-.2-.1v-.1h1.9c.1 0 .3-.1.3-.2.2-.5.3-1 .5-1.5 0-.1.1-.1.1-.3.1.1.1.2.2.3.2.4.3.9.5 1.3.1.2.2.3.5.3H52c-.1.1-.1.1 0 .2M33.9 28h-5.3v-5.2c.4 3.1 2.5 4.5 5.3 5.2m-12.2-5.3h-2.4c.3-.9.6-1.9.9-2.8.1-.2.1-.3.1-.5l.1-.1.1.1c.5 1.1.8 2.1 1.2 3.3M3.1 28H1v-.6zm2 10.6c-.4.2-.8.3-1.3.3-.4 0-.8-.1-1.2-.2-.4-.2-.8-.4-1-.8-.4-.6-.7-1.3-.7-2.3 0-.7.1-1.2.4-1.7s.6-.9 1.1-1.2 1-.4 1.5-.4q.6 0 1.2.3v1.7c-.4-.2-.8-.3-1.1-.3-.4 0-.7.1-1 .4s-.4.7-.4 1.3.1 1 .5 1.3c.3.3.6.4 1 .4s.7-.1 1-.3zm5.8-3c0 1.1-.2 1.9-.7 2.4q-.75.9-2.1.9c-1.8 0-2.8-1.1-2.8-3.3 0-1.1.2-1.9.7-2.4q.75-.9 2.1-.9c1.35 0 1.6.3 2.1.9s.7 1.4.7 2.4m-1.7 0c0-1.2-.4-1.7-1.1-1.7-.4 0-.6.1-.8.5s-.3.7-.3 1.2c0 1.1.4 1.7 1.1 1.7.8.1 1.1-.5 1.1-1.7m7 3.2h-1.8l-1.5-3.5v3.5h-1.6v-6.4h2l1.2 3.1v-3.1h1.7zm4-4.6c-.4-.2-.8-.3-1.1-.3-.2 0-.3 0-.4.1s-.2.2-.2.4.1.3.3.4c.2.2.5.4.7.5q.45.3.6.6.3.45.3.9c0 .5-.2 1-.6 1.4-.4.5-1 .7-1.7.7q-.6 0-1.5-.3V37c.1.1.3.3.6.3.2.1.5.1.7.1s.3 0 .5-.1c.1-.1.2-.2.2-.4s-.1-.3-.2-.5c-.1-.1-.3-.2-.5-.4s-.4-.3-.5-.4c-.4-.4-.6-.8-.6-1.4 0-.3.1-.6.2-.9.3-.6 1-1 1.9-1.1.5 0 1 0 1.5.2zm4.5-.2h-1.3v4.9h-1.6V34h-1.2v-1.6h4.1zm4.8 4.8h-1.8l-.8-1.8h-.4v1.9h-1.6v-6.4h2.3c.7 0 1.2.2 1.6.6s.6.9.6 1.6c0 .4-.1.7-.3 1.1s-.4.6-.7.8zm-1.8-4.1c0-.2-.1-.4-.2-.6s-.4-.2-.6-.2h-.4v1.6h.4c.6 0 .8-.3.8-.8m6.6 2.4c0 .6-.2 1-.7 1.4-.4.3-.9.5-1.5.5s-1.1-.2-1.5-.5c-.5-.3-.7-.8-.7-1.4v-4.7h1.6v4.2q0 .6.6.6t.6-.6v-4.2h1.6zm4.7 1.5c-.4.2-.8.3-1.3.3-.4 0-.8-.1-1.2-.2-.4-.2-.8-.4-1-.8-.4-.6-.7-1.3-.7-2.3 0-.7.1-1.2.4-1.7s.6-.9 1.1-1.2 1-.4 1.5-.4q.6 0 1.2.3v1.7c-.3-.2-.7-.3-1-.3-.4 0-.7.1-1 .4s-.4.7-.4 1.3.1 1 .5 1.3c.3.3.6.4 1 .4s.7-.1 1-.3zm4.3-4.6H42v4.9h-1.6V34h-1.2v-1.6h4.1zm1.8 4.8h-1.6v-6.4h1.6zm6-3.2c0 1.1-.2 1.9-.7 2.4q-.75.9-2.1.9c-1.8 0-2.8-1.1-2.8-3.3 0-1.1.2-1.9.7-2.4q.75-.9 2.1-.9t2.1.9c.5.6.7 1.4.7 2.4m-1.7 0c0-1.2-.4-1.7-1.1-1.7-.4 0-.6.1-.8.5s-.3.7-.3 1.3c0 1.1.4 1.7 1.1 1.7.8 0 1.1-.6 1.1-1.8m7 3.2h-1.8l-1.5-3.5v3.5h-1.6v-6.4h2l1.2 3.1v-3.1h1.7zM7.5 46.1H5.9v-4.2L5 46.1H3.4l-.9-4.2v4.2H.8v-6.4h2.7l.7 3.7.8-3.7h2.5zm4.8 0h-1.7V45H9.5v1.1H7.9v-4.3q0-.9.6-1.5c.4-.4.9-.6 1.6-.6s1.2.2 1.6.7c.4.4.7 1 .7 1.6v4.1zm-1.6-2.6v-1.6c0-.2-.1-.3-.2-.5-.1-.1-.3-.2-.4-.2-.2 0-.3.1-.4.2s-.2.3-.2.5v1.6z"/><path class="st0" d="M16 41.3h-1.3v4.9h-1.6v-4.9h-1.2v-1.6H16zm3.7 4.8h-3.5v-6.4h3.5v1.6h-1.9v.9h1.8v1.5h-1.8v.9h1.9zm4.9 0h-1.8l-.8-1.9h-.4v1.9H20v-6.4h2.3c.7 0 1.2.2 1.6.6s.6.9.6 1.6c0 .4-.1.7-.3 1.1s-.4.6-.7.8zM22.8 42c0-.2-.1-.4-.2-.6s-.4-.2-.6-.2h-.4v1.6h.4c.6 0 .8-.3.8-.8m3.7 4.1h-1.6v-6.4h1.6zm4.8 0h-1.7V45h-1.2v1.1h-1.6v-4.3q0-.9.6-1.5c.4-.4.9-.6 1.6-.6s1.2.2 1.6.7c.4.4.7 1 .7 1.6zm-1.7-2.6v-1.6c0-.2-.1-.3-.2-.5-.1-.1-.3-.2-.4-.2-.2 0-.3.1-.4.2s-.2.3-.2.5v1.6zm5.6 2.6h-3.5v-6.4h1.6v4.9h1.9zm6.6-1.8c0 .5-.2 1-.6 1.3s-.9.5-1.4.5h-2v-6.4h2c.5 0 .9.2 1.3.5q.6.45.6 1.2 0 .9-.6 1.5c.4.3.7.8.7 1.4m-1.7-2.6c0-.1-.1-.3-.2-.4s-.2-.2-.4-.2h-.2v1.1h.2c.1 0 .3 0 .4-.2.1 0 .2-.1.2-.3m0 2.3c0-.1-.1-.3-.2-.4s-.2-.1-.3-.1h-.3v1h.3c.1 0 .3-.1.3-.2.2 0 .3-.1.2-.3m6.4 2.1h-1.7V45h-1.2v1.1H42v-4.3q0-.9.6-1.5c.4-.4.9-.6 1.6-.6s1.2.2 1.6.7c.4.4.7 1 .7 1.6zm-1.7-2.6v-1.6c0-.2-.1-.3-.2-.5-.1-.1-.3-.2-.4-.2s-.3.1-.4.2-.2.3-.2.5v1.6zm7 2.6H50l-1.5-3.5v3.5h-1.6v-6.4h2l1.2 3.1v-3.1h1.7zm4.8 0h-1.9l-1.1-2.3v2.3H52v-6.4h1.6v2.5l1.1-2.5h1.6l-1.5 3.1zm12.6-6.8c0 2.2-.5 3.9-1.6 5.1-1 1.2-2.5 1.8-4.4 1.8h-4.7V32.3h4.7c1.9 0 3.4.6 4.4 1.8 1.2 1.3 1.7 3 1.6 5.2m-3.6 0q0-1.8-.6-2.7t-1.8-.9h-1.1V43h1.1c1.6-.1 2.4-1.3 2.4-3.7m12.3 6.9h-3.1v-.5q-.9.6-1.8.6c-.8 0-1.6-.3-2.2-.9s-.9-1.4-1-2.4c-.1-1.1.3-2 1-2.8.7-.7 1.5-1 2.6-1 .5 0 1 .1 1.4.3 0-.6 0-.9-.1-1-.2-.3-.7-.5-1.4-.5-1.2 0-2 .3-2.4.8v-2.7c.9-.4 1.9-.6 3.1-.6s2.1.2 2.8.7q1.2.75 1.2 2.4zm-3.1-2.9V42c-.1-.2-.2-.3-.3-.4-.2-.1-.4-.2-.6-.1-.3 0-.6.1-.8.4q-.3.3-.3.9 0 .45.3.9c.2.2.5.4.8.4.5-.2.8-.4.9-.8m9.5 2.9c-.5.1-1 .1-1.4.1-1 0-1.7-.2-2.3-.7s-.8-1.1-.8-2V38h-1.1v-2.3h1.1v-2.2l3.1-1.1v3.3h1.3V38h-1.3v4.8c0 .6.2.9.7.9.2 0 .4 0 .7-.1zm8.7 0h-3.1v-.5q-.9.6-1.8.6c-.8 0-1.6-.3-2.2-.9s-.9-1.4-1-2.4c-.1-1.1.3-2 1-2.8.7-.7 1.5-1 2.6-1 .5 0 1 .1 1.4.3 0-.6 0-.9-.1-1-.2-.3-.7-.4-1.4-.4-1.2 0-2 .3-2.4.8v-2.7c.9-.4 1.9-.6 3.1-.6 1.1 0 2.1.2 2.8.7q1.2.75 1.2 2.4zm-3.1-2.9V42c-.1-.2-.2-.3-.3-.4-.2-.1-.4-.2-.6-.1-.3 0-.6.1-.8.4q-.3.3-.3.9 0 .45.3.9c.2.2.5.4.8.4.4-.2.7-.4.9-.8m12.8-2.3c0 1.5-.4 2.8-1.3 3.8-.8 1-1.8 1.5-2.8 1.5-.8 0-1.4-.2-1.8-.7v.6h-3V32.3h3v3.9c.4-.3.9-.5 1.5-.5h.4c1.2 0 2.1.5 2.9 1.5s1.1 2.2 1.1 3.8m-3 0c0-1.6-.5-2.4-1.4-2.4-.8 0-1.2.5-1.4 1.6v1.7c.2 1.1.6 1.6 1.4 1.6.9-.1 1.3-.9 1.4-2.5m11.5 5.2h-3.1v-.5q-.9.6-1.8.6c-.8 0-1.6-.3-2.2-.9s-.9-1.4-1-2.4c-.1-1.1.3-2 1-2.8.7-.7 1.5-1 2.6-1 .5 0 1 .1 1.4.3 0-.6 0-.9-.1-1-.2-.3-.7-.4-1.4-.4-1.2 0-2 .3-2.4.8v-2.7c.9-.4 1.9-.6 3.1-.6s2.1.2 2.8.7q1.2.75 1.2 2.4zm-3.1-2.9V42c-.1-.2-.2-.3-.3-.4-.2-.1-.4-.2-.6-.1-.3 0-.6.1-.8.4q-.3.3-.3.9 0 .45.3.9c.2.2.5.4.8.4.4-.2.7-.4.9-.8m10-4.7c-.9-.4-1.6-.6-2.1-.5-.6.1-.8.3-.8.8 0 .2.1.5.4.7l1.2.9c.4.4.8.7 1 1.1.3.4.4.9.4 1.5 0 .9-.3 1.6-.9 2.3-.7.8-1.6 1.1-2.8 1.1-.7 0-1.5-.1-2.5-.4v-2.8c.2.2.5.4 1 .6.4.2.8.2 1.2.2.3 0 .6-.1.7-.2.2-.2.4-.4.4-.7s-.1-.6-.4-.8c-.4-.3-1-.7-1.7-1.3s-1-1.3-1-2.2c0-.5.1-1 .4-1.5.6-1.1 1.6-1.6 3.1-1.7.8 0 1.6.1 2.5.3zm9.5 3.2H122c0 .7.2 1.2.7 1.5.4.3 1 .5 1.7.5 1.1 0 2.1-.3 2.9-1v2.9c-1 .5-2.1.7-3.2.7-1.5 0-2.7-.4-3.6-1.3-1.1-1-1.6-2.5-1.6-4.5 0-1.6.6-2.9 1.6-3.8.9-.7 1.8-1.1 2.9-1.1q2.25 0 3.3 1.5c.7.9 1 2.2 1 3.8 0 .2 0 .5-.1.8m-2.9-2.2c0-.4-.2-.7-.5-1s-.6-.4-1-.4-.7.1-.9.4c-.3.3-.4.6-.5 1zM67.9 26.2c0 1.2-.4 2.2-1.4 3.1-.9.8-2 1.1-3.2 1.1h-4.6V15.7h4.5c1.1 0 2.1.4 2.9 1.1.8.8 1.3 1.7 1.3 2.8.1 1.4-.4 2.5-1.4 3.4 1.2.8 1.8 1.8 1.9 3.2m-4-5.8c0-.3-.1-.6-.4-.9-.2-.2-.5-.4-.8-.4h-.4v2.5h.4c.3 0 .6-.1.9-.4.2-.2.3-.5.3-.8m.2 5.2c0-.3-.1-.6-.4-.8-.2-.2-.5-.3-.8-.3h-.7v2.4h.8c.3 0 .6-.1.8-.4s.3-.5.3-.9m18.8 4.8H79v-2.6h-2.7v2.6h-3.7v-9.9c0-1.4.5-2.5 1.4-3.5s2.2-1.4 3.6-1.4c1.5 0 2.7.5 3.7 1.5s1.5 2.2 1.5 3.7zM79 24.5v-3.6c0-.4-.1-.8-.4-1.1-.2-.3-.6-.5-1-.5s-.7.2-1 .5c-.2.3-.4.7-.4 1.1v3.6zm19.9 5.9h-4.1l-3.3-8v8h-3.7V15.7h4.6l2.7 7v-7H99zm15.3 0h-4.3l-2.4-5.4v5.4h-3.7V15.7h3.7v5.6l2.5-5.6h3.7l-3.4 7.2zm12.9-10.6c-1-.5-1.8-.8-2.5-.8-.4 0-.7.1-1 .3s-.5.5-.5.8.2.7.6 1c.5.4 1.1.8 1.6 1.2.6.5 1.1 1 1.4 1.5.4.6.6 1.3.6 2 0 1.2-.4 2.3-1.3 3.2-1 1-2.3 1.6-3.9 1.6-1 0-2.1-.2-3.4-.6v-3.9c.3.3.8.6 1.3.8.6.2 1.1.3 1.6.3.4 0 .8-.1 1.1-.3s.5-.5.5-.9-.2-.8-.5-1.1q-.3-.3-1.2-.9t-1.2-.9a4.1 4.1 0 0 1-1.4-3.1c0-.7.2-1.4.5-2.1.8-1.5 2.2-2.3 4.3-2.4 1.1-.1 2.3.1 3.5.4zm31.5 384.7v-11.2c0-57.4.1-114.7-.2-172 0-5.8 2.1-8.6 6.7-10.8 3.9-1.8 7.8-3.8 11.6-5.9 15.3-8.1 30.6-16.2 46-24.2 9.6-5 19.3-10 28.9-15 11.8-6.1 23.6-12.3 35.4-18.4 1.9-1 3.7-2.2 5.8-3.4v260.3c-.1 0-.3 0-.5.1-3.5-9.4-7-18.9-10.5-28.3-7.8-21-15.7-41.9-23.5-62.9-2.8-7.4-5.5-14.7-8.1-22.2-.9-2.7-2.3-3.9-5.4-3.8-12.3.2-24.6.2-36.8 0-2.5 0-3.5.9-4.3 3-9.2 25.3-18.5 50.5-27.7 75.8-4.6 12.6-9.2 25.1-14 37.6-.3.9-1.6 1.4-2.4 2.1-.3-.2-.6-.5-1-.8m254.8 0c3.2-1 6.5-1.9 9.7-3.1.6-.2 1.4-1.4 1.3-2-1.7-7.3-3.6-14.6-5.5-22.1-4.4.9-8.3 1.8-12.2 2.5-14.2 2.4-28.4 2.7-41.9-3.2-12.7-5.6-18.8-15.8-19.2-29.5-.4-10.7 3-19.9 11.2-26.9 6.4-5.4 14.1-8.1 22.3-8.8 7.4-.5 14.9-.5 22.3 0 4.9.3 9.8 1.8 14.6 3.1 1.9.5 2.8.4 3.4-1.6 2.1-6.7 4.5-13.3 6.6-20 .2-.7-.8-2.3-1.6-2.6-4.8-1.4-9.6-2.8-14.5-3.6-11.5-1.7-23-2.2-34.5-1-20.1 2-38.7 7.9-53.5 22.4-8.8 8.6-13.9 19.2-15.5 31.5-.1.9-.3 1.7-1.1 2.5V144.2c3.4 1.8 6.6 3.5 9.9 5.2 37.1 20 74.1 40 111.2 59.9 2.2 1.2 2.2 2.7 2.2 4.6v169.2c0 6.4-.1 12.7 0 19 0 2-.5 2.8-2.6 2.7-4.2-.1-8.5 0-12.7 0 .1 0 .1-.2.1-.3m168.9 9.7v27.2H33v-5.5c0-6 .1-12.1-.1-18.1-.1-2.9.7-3.7 3.6-3.7 50.5.1 100.9.1 151.4.1zM438.2 215.8c8 4.3 15.6 8.4 23.2 12.5 33.5 18.1 67 36.2 100.5 54.2 5.5 3 11 6 16.5 8.8 1.6.8 2.3 1.7 2.3 3.6v107.7c0 .7-.2 1.4-.4 3.1-1-1.2-1.6-1.8-1.8-2.4-5.8-14.7-11.5-29.4-17.3-44.1-7.4-18.9-14.9-37.7-22.4-56.6-1.7-4.2-3.5-8.4-4.9-12.7-.7-2.1-1.8-3-4-3-13.5.1-27.1.1-40.6 0-2 0-3.1.7-3.7 2.5-3 7.9-6 15.9-9.1 23.8-6.1 15.7-12.3 31.4-18.4 47.1-5.5 14.2-11 28.4-16.5 42.5-.3.9-1.4 1.4-2.2 2.1-.4-.9-1.2-1.8-1.2-2.7V218.3c-.2-.7-.1-1.3 0-2.5m-290.7 4.1v180.6c0 4.4 0 4.4-4.4 4.4h-32.8c-1 0-2 0-3-.4 3.9-1.2 7.8-2.3 11.6-3.8 9.3-3.6 17.4-8.8 22.5-17.8 6.7-11.8 3.2-27.4-7.6-35.7-10.3-8-22.5-11.3-34.6-15.1-6.5-2-13-4.4-19-7.6-5.1-2.7-4.6-8.5.8-10.9 3.6-1.6 7.7-2.7 11.6-3 12-.8 23.8 1 35.2 5.1.8.3 2.7-.3 2.9-1 2.8-7.2 5.4-14.5 7.9-21.8.1-.3-.1-.6-.2-1.6-4.6-1.2-9.3-2.6-14.2-3.5-12.6-2.4-25.4-3-38.2-1.9-13.8 1.2-27 4.3-38 13.2-15.4 12.5-15.5 32.7 1.2 44.7 11.1 7.9 23.9 11.3 36.7 15 4.5 1.3 8.8 3.2 13 5.1 3.2 1.4 5.3 4 5.1 7.8-.2 3.5-2.2 5.9-5.4 6.9-3.7 1.2-7.6 2.4-11.4 2.7-13 .9-25.7-1-37.9-5.4-5.4-2-10.3-5.3-15.3-8.2-.7-.4-1.2-1.9-1.2-2.9.2-27.6.2-55.2.2-82.8 0-.9.8-2.1 1.5-2.5 6.7-3.6 13.5-7.1 20.3-10.7 12.1-6.4 24.3-12.8 36.4-19.1 5.2-2.7 10.4-5.4 15.6-8.2 13.5-7.1 26.8-14.2 40.7-21.6"/><path class="st0" d="M537.9 404.6h-58.2c3.2-9.2 6.3-18.1 9.6-26.9.3-.8 1.8-1.7 2.8-1.7 11-.1 22.1-.1 33.1 0 1 0 2.6.7 2.9 1.5 3.5 8.6 6.7 17.3 10 26 .1.3-.1.6-.2 1.1m-339.2-.1c2.5-7.6 4.9-14.9 7.4-22.2.7-2.1 1.1-5 2.6-6 1.6-1.1 4.4-.4 6.7-.4h25.9c2 0 3.1.7 3.7 2.5 3 8.6 6.1 17.1 9.2 26.1zm338.9-66.6c-3.7 2.8-7.4 5.5-11.1 8.3-5.7 4.3-5.7 4.3-3.2 11.1 1.5 4 2.8 8.1 4.2 12.2-.2.2-.5.4-.7.6-.8-.5-1.7-.8-2.4-1.4-3.9-2.9-7.9-5.7-11.7-8.8-1.9-1.6-3.2-1.8-5.3 0-4.1 3.5-8.6 6.6-12.9 9.8-.4.3-1.1.4-2.3.8.9-2.5 1.6-4.5 2.2-6.6 1.2-3.8 2.3-7.5 3.7-11.2.7-2 .1-3-1.5-4.1-4.4-3.1-8.7-6.4-13-9.6-.6-.4-1.2-.7-1.8-1.1.2-.3.3-.6.5-.8.6-.1 1.3-.3 1.9-.3 5.5 0 11 .2 16.5 0 1 0 2.6-1.2 3-2.3 1.8-4.8 3.3-9.6 4.9-14.5.2-.7.5-1.3 1.1-2.6.8 1.4 1.4 2.2 1.8 3.2 1.6 4.4 3.2 8.8 4.6 13.2.8 2.5 2.1 3.2 4.5 3.1 4.9-.2 9.8-.1 14.7-.1.7 0 1.4.1 2 .2zm-179.4 66.8h-52.9v-51.4c4.8 30.4 25.3 44.4 52.9 51.4m-120.4-52.6h-23.4c3-9.3 5.9-18.3 8.8-27.4.5-1.6.9-3.2 1.4-4.8.2-.5.8-.9 1.3-1 .2-.1.9.5 1 .9 3.7 10.6 7.2 21.1 10.9 32.3M53.9 404.7H33.2v-5.9c6.8 2 13.6 3.9 20.7 5.9m19.2 105.2c-3.7 2-8 3-13 3-4.3 0-8.4-.8-12.1-2.4-4.2-1.7-7.5-4.2-10.1-7.6-4.4-5.7-6.6-13.1-6.6-22.3 0-6.5 1.2-12.3 3.5-17.2 2.5-5.1 6.2-9.1 11-12 4.5-2.7 9.5-4 14.8-4 4.3 0 8.3.9 12.1 2.6v16.4c-3.2-1.8-6.5-2.8-9.8-2.8-4 0-7.2 1.3-9.7 3.9-2.8 3-4.3 7.2-4.3 12.9 0 5.5 1.5 9.7 4.5 12.7 2.6 2.5 6 3.8 10 3.8 3.8 0 7-1.1 9.7-3.2zm58-29.7c-.1 10.5-2.3 18.6-6.8 24.2-4.6 5.7-11.6 8.6-20.8 8.6-18-.1-27.2-11-27.5-32.7-.2-10.4 2.1-18.5 6.8-24.2s11.6-8.5 20.7-8.5 16 2.9 20.7 8.5 7 13.7 6.9 24.1m-16.7 0c.1-11.4-3.6-17.1-10.9-17.1q-5.4 0-8.1 4.5c-2.7 4.5-2.7 7.2-2.7 12.6q.15 16.95 10.8 17.1c7.2 0 10.8-5.7 10.9-17.1m68.5 31.7h-17.7l-14.5-34.5v34.5h-16.1v-63.4h19.8l11.8 30.2v-30.2H183zm40.2-45.8c-4.3-2.3-7.9-3.4-10.8-3.4-1.6 0-3.1.4-4.3 1.1-1.4.8-2.2 2-2.2 3.6s.8 3 2.5 4.4c2.3 1.8 4.6 3.6 7 5.3 2.7 2.2 4.7 4.3 6.1 6.3 1.7 2.5 2.6 5.5 2.6 8.8 0 5.2-1.8 9.8-5.5 13.9-4.2 4.5-9.8 6.8-16.9 6.8-4.3 0-9.2-.9-14.6-2.6v-16.9c1.4 1.4 3.3 2.5 5.7 3.4s4.7 1.4 6.7 1.4c1.9 0 3.4-.4 4.6-1.2 1.4-1 2.2-2.4 2.2-4 0-1.8-.8-3.4-2.3-4.8-1-1-2.8-2.4-5.2-4s-4.1-2.9-5.2-3.9c-4-3.6-6-8-6-13.5 0-3.2.7-6.2 2.2-9 3.4-6.4 9.5-9.9 18.5-10.4 4.8-.3 9.8.3 14.9 1.8zm44.2-2.2h-12.6v48h-15.8v-48h-11.8v-15.4h40.2zm48 48h-18l-8-18.4h-4.1v18.4h-15.9v-63.4H292c6.8 0 12.1 1.9 16.1 5.7 4 3.9 6 9.3 6 16.1 0 3.8-.9 7.3-2.6 10.6s-4 6-6.8 8zm-17.8-40.6c0-2.2-.6-4-1.9-5.5-1.5-1.6-3.6-2.5-6.4-2.5h-3.9V479h3.9c5.4.1 8.2-2.5 8.3-7.7m65 23.4c0 5.8-2.3 10.4-7 13.8q-6.3 4.5-15.3 4.5c-5.9 0-10.9-1.6-15-4.6-4.5-3.4-6.8-7.9-6.8-13.5v-46.3h15.9v42c0 4.1 2.1 6.2 6.2 6.2 3.9 0 5.9-2.1 5.9-6.3v-41.8h16zm45.9 15.2c-3.7 2-8 3-13 3-4.3 0-8.4-.8-12.1-2.4-4.2-1.7-7.5-4.2-10.1-7.6-4.4-5.7-6.6-13.1-6.6-22.3 0-6.5 1.2-12.3 3.5-17.2 2.5-5.1 6.2-9.1 11-12 4.5-2.7 9.5-4 14.8-4 4.3 0 8.3.9 12.1 2.6v16.4c-3.2-1.8-6.5-2.8-9.8-2.8-4 0-7.2 1.3-9.7 3.9-2.8 3-4.3 7.2-4.3 12.9 0 5.5 1.5 9.7 4.5 12.7 2.6 2.5 6 3.8 10 3.8 3.8 0 7-1.1 9.7-3.2zm43.1-46H439v48h-15.8v-48h-11.8v-15.4h40.2zm18 48h-15.8v-63.4h15.8zm59.2-31.7c0 10.5-2.3 18.6-6.8 24.2-4.6 5.7-11.6 8.6-20.8 8.6-18-.1-27.2-11-27.5-32.7-.2-10.4 2.1-18.5 6.8-24.2s11.6-8.5 20.7-8.5 16 2.9 20.7 8.5 7 13.7 6.9 24.1m-16.7 0c0-11.4-3.6-17.1-10.9-17.1q-5.4 0-8.1 4.5c-2.7 4.5-2.7 7.2-2.7 12.6q.15 16.95 10.8 17.1c7.2 0 10.8-5.7 10.9-17.1m68.4 31.7h-17.7l-14.5-34.5v34.5h-16.1v-63.4h19.8l11.8 30.2v-30.2h16.8zm-482.9 72H81.3V542l-9.1 41.9H56.4l-9-41.9v41.9H31.2v-63.4h26.5l6.7 36.3 7.8-36.3h25.2zm47.8 0h-16.8v-11.3H117v11.3h-16.1v-43c0-6 2.1-11 6.2-15.1s9.3-6.2 15.6-6.1c6.4 0 11.8 2.2 16.1 6.6 4.3 4.3 6.5 9.7 6.5 16zm-16.8-25.6v-15.7c0-1.8-.5-3.4-1.6-4.8q-1.65-2.1-4.2-2.1c-2.55 0-3.1.7-4.1 2.1s-1.5 3-1.5 4.7v15.7h11.4z"/><path class="st0" d="M181.4 535.9h-12.6v48H153v-48h-11.8v-15.4h40.2zm36.5 48h-35v-63.4h34.7v15.3h-18.8v9h18.1v14.8h-18.1v9.1h19.1zm49 0h-18l-7.9-18.4h-4.1v18.4H221v-63.4h22.5c6.8 0 12.1 1.9 16.1 5.7 4 3.9 6 9.3 6 16.1 0 3.8-.9 7.3-2.6 10.6s-4 6-6.8 8zm-17.8-40.6c0-2.2-.6-4-1.9-5.5-1.5-1.6-3.6-2.5-6.4-2.5h-3.9V551h3.9c5.4.1 8.2-2.5 8.3-7.7m36 40.6h-15.8v-63.4h15.8zm47.8 0h-16.8v-11.3h-11.5v11.3h-16.1v-43c0-6 2-11 6.1-15.1s9.3-6.2 15.6-6.1c6.4 0 11.8 2.2 16.1 6.6 4.3 4.3 6.5 9.7 6.5 16v41.6zm-16.8-25.6v-15.7c0-1.8-.5-3.4-1.6-4.8q-1.65-2.1-4.2-2.1c-2.55 0-3.1.7-4.1 2.1s-1.5 3-1.5 4.7v15.7h11.4zm55.1 25.6h-34.9v-63.4h15.9v48h19.1v15.4zm65.1-18.2c.2 5.3-1.8 9.7-5.9 13.2-3.9 3.3-8.6 4.9-14 4.9h-19.9v-63.4H416c4.9 0 9.1 1.6 12.7 4.9s5.5 7.3 5.8 12.1c.3 5.8-1.6 10.6-5.9 14.4 4.8 3.5 7.4 8 7.7 13.9m-17-25.2c-.1-1.5-.6-2.7-1.6-3.8-1-1-2.2-1.6-3.7-1.6h-1.7V546h1.8c1.5 0 2.7-.5 3.7-1.5s1.5-2.4 1.5-4m.8 22.7c-.1-1.4-.6-2.6-1.6-3.5-.9-.9-2-1.4-3.3-1.4h-2.9v10.3h3.2c1.4 0 2.5-.5 3.4-1.6.9-1 1.3-2.3 1.2-3.8m63.2 20.7h-16.8v-11.3H455v11.3h-16.1v-43c0-6 2-11 6.1-15.1s9.3-6.2 15.6-6.1c6.4 0 11.8 2.2 16.1 6.6 4.3 4.3 6.5 9.7 6.5 16v41.6zm-16.8-25.6v-15.7c0-1.8-.5-3.4-1.6-4.8q-1.65-2.1-4.2-2.1c-2.55 0-3.1.7-4.1 2.1s-1.5 3-1.5 4.7v15.7h11.4zm68.5 25.6h-17.7l-14.5-34.5v34.5h-16.1v-63.4h19.8l11.7 30.2v-30.2H535zm48.2 0h-18.5l-10.5-23.2v23.2h-15.9v-63.4h15.9v24.3l10.8-24.3h16l-14.5 31.1zm124.7-67.3c-.1 21.8-5.2 38.7-15.4 50.7q-15.3 18-43.5 18h-46.1V447.6h46.5c19 0 33.5 6 43.6 18.1 10 12.1 15 29.1 14.9 50.9m-36.4-.2c0-11.5-2-20.3-6-26.5s-9.8-9.4-17.4-9.4h-10.7v72H648c15.7 0 23.5-12 23.5-36.1m122.3 68.8h-30.7v-5.1c-5.9 3.7-11.9 5.6-18 5.6-8.4 0-15.5-3.1-21.5-9.3s-9.3-14-10-23.4c-.6-11.1 2.8-20.2 10-27.4 6.8-6.7 15.3-10 25.3-10q7.2 0 14.1 2.7c0-5.7-.4-9-1.3-9.9-2.3-2.9-7-4.4-14-4.4-11.4 0-19.4 2.7-24.1 8.1v-26.9q13.5-6 30.6-6c17.1 0 20.4 2.2 27.3 6.7 8.2 5.3 12.3 13.2 12.3 23.9zm-30.9-28.7v-13.7c-.5-1.6-1.7-2.9-3.4-4-1.8-1.1-3.6-1.5-5.6-1.4-3 .1-5.6 1.3-7.7 3.7-2.1 2.3-3.2 5.2-3.2 8.6s1.1 6.3 3.2 8.7c2.1 2.3 4.7 3.6 7.7 3.7 4.7.1 7.7-1.7 9-5.6m93.9 28c-4.9.9-9.6 1.4-14.1 1.4-9.5 0-17-2.3-22.5-7-5.5-4.6-8.2-11.3-8.2-20.1v-54.7h-10.4v-22.7H812v-21.3l30.4-10.9v32.2h12.9v22.7h-12.9v47.7c0 5.6 2.5 8.4 7.4 8.4 1.9 0 4.2-.4 7-1.2zm85.9.7H912v-5.1c-5.9 3.7-11.9 5.6-18 5.6-8.4 0-15.5-3.1-21.5-9.3s-9.3-14-10-23.4c-.6-11.1 2.8-20.2 10-27.4 6.8-6.7 15.3-10 25.3-10q7.2 0 14.1 2.7c0-5.7-.4-9-1.3-9.9-2.3-2.9-7-4.4-14-4.4-11.4 0-19.4 2.7-24.1 8.1v-26.9q13.5-6 30.6-6c17.1 0 20.4 2.2 27.3 6.7 8.2 5.3 12.3 13.2 12.3 23.9zm-30.9-28.7v-13.7c-.5-1.6-1.7-2.9-3.4-4-1.8-1.1-3.6-1.5-5.6-1.4-3 .1-5.6 1.3-7.7 3.7-2.1 2.3-3.2 5.2-3.2 8.6s1.1 6.3 3.2 8.7c2.1 2.3 4.7 3.6 7.7 3.7 4.7.1 7.7-1.7 9-5.6m127.1-23c0 14.9-4.3 27.4-12.8 37.4q-12.15 14.4-28.2 14.4c-7.6 0-13.4-2.2-17.4-6.5v6.3h-30.1V447.6h30.1v38.6q6.3-4.2 14.4-5.1c1.4-.1 2.8-.2 4.2-.2 11.5 0 21 4.9 28.6 14.7s11.3 22.4 11.2 37.9m-30.4 0c.1-16-4.6-24-14.2-24-7.5 0-12.1 5.1-13.7 15.4v16.7c1.5 10.4 6.1 15.7 13.7 15.8 9.4.1 14.1-7.9 14.2-23.9m114.1 51.7h-30.7v-5.1c-5.9 3.7-11.9 5.6-17.9 5.6-8.4 0-15.5-3.1-21.5-9.3s-9.3-14-10.1-23.4c-.6-11.1 2.8-20.2 10.1-27.4 6.8-6.7 15.3-10 25.3-10q7.2 0 14.1 2.7c0-5.7-.4-9-1.3-9.9-2.3-2.9-7-4.4-14-4.4-11.4 0-19.4 2.7-24.1 8.1v-26.9q13.5-6 30.6-6c17.1 0 20.4 2.2 27.3 6.7 8.2 5.3 12.3 13.2 12.3 23.9zm-30.9-28.7v-13.7c-.5-1.6-1.7-2.9-3.4-4-1.8-1.1-3.6-1.5-5.6-1.4-3 .1-5.6 1.3-7.7 3.7-2.1 2.3-3.2 5.2-3.2 8.6s1.1 6.3 3.2 8.7c2.1 2.3 4.7 3.6 7.7 3.7 4.7.1 7.7-1.7 9-5.6m98.8-46.8c-8.7-4.2-15.4-5.9-20.3-5.2-5.5.8-8.2 3.3-8.2 7.6 0 2.5 1.4 4.8 4.2 7 3.8 2.9 7.7 5.8 11.6 8.8 4.3 3.7 7.7 7.1 10.1 10.4 2.8 4.2 4.2 9.1 4.2 14.6 0 8.5-3.1 16-9.2 22.5-6.9 7.5-16.3 11.2-28.1 11.2q-10.8 0-24.3-4.2v-27.7c2.2 2.1 5.4 4 9.5 5.5 4.1 1.6 8 2.4 11.6 2.4 3 0 5.4-.7 7.2-2 2.5-1.6 3.7-3.8 3.7-6.4 0-2.9-1.3-5.5-4-8-4-2.7-9.8-7-17.3-12.8-6.7-5.8-10.1-13.2-10.1-22.1 0-5.1 1.2-10.1 3.7-14.8 5.7-10.5 15.9-16.2 30.8-17.1q12-.75 24.9 3zm94.6 31.2H1229c0 6.5 2.3 11.5 7 14.9q6.3 4.5 16.5 4.5c11.3 0 20.7-3.3 28.3-10v29c-10 4.7-20.6 7-31.9 7-14.7 0-26.5-4.1-35.6-12.5-10.7-10-15.8-24.8-15.5-44.6.3-16.2 5.6-28.9 15.8-38 8.5-7.4 18.2-11.1 29-11.2q21.6-.15 32.7 15.3c6.6 9.2 9.9 21.5 9.9 37.2.3 2.8.1 5.6-.1 8.4m-28.7-21c-.3-4.1-1.9-7.3-4.6-9.8s-5.9-3.8-9.5-3.9c-3.5 0-6.6 1.3-9.3 3.8s-4.2 5.9-4.6 9.9zM694.1 387c.5 12.1-4 22.2-13.6 30.2-9 7.5-19.7 11.3-32 11.3h-45.6v-145h44.5c11.1 0 20.8 3.7 29 11.2s12.6 16.7 13.2 27.8c.8 13.2-3.7 24.2-13.5 32.9 11.3 7.6 17.3 18.1 18 31.6m-38.9-57.6c-.2-3.3-1.4-6.2-3.8-8.6q-3.45-3.6-8.4-3.6h-3.9v24.7h4.1c3.4.1 6.2-1.1 8.5-3.5 2.3-2.6 3.5-5.5 3.5-9m1.8 51.9c-.2-3.2-1.5-5.9-3.6-8-2.2-2.1-4.7-3.2-7.5-3.2h-6.7v23.5h7.2c3.1 0 5.7-1.2 7.8-3.7 2.1-2.4 3-5.3 2.8-8.6m185.5 47.2h-38.4v-25.8h-26.2v25.8H741v-98.4c0-13.6 4.7-25.2 14.1-34.6s21.3-14.1 35.8-14q22.05.15 36.9 15c9.9 9.9 14.8 22.1 14.8 36.7zM804.1 370v-35.9c0-4.1-1.2-7.7-3.7-10.9q-3.75-4.8-9.6-4.8c-5.85 0-7.1 1.6-9.5 4.8-2.3 3.2-3.5 6.8-3.5 10.8v36zm197.4 58.5H961l-33.1-78.9v78.9H891v-145h45.2l26.9 69.1v-69.1h38.4zm151 0h-42.3l-24-53v53H1050v-145h36.3v55.6l24.7-55.6h36.7l-33.3 71.2zm127.7-104.7q-14.7-7.8-24.6-7.8c-3.7 0-7 .9-9.9 2.6-3.3 1.9-5 4.6-5 8.1s1.9 6.9 5.8 9.9c5.3 4.1 10.6 8.2 15.9 12.2 6.2 5.1 10.8 9.9 13.8 14.5 4 5.8 6 12.5 6 20.2q0 17.85-12.6 31.8-14.25 15.6-38.7 15.6c-9.9 0-21-2-33.4-6v-38.7c3.2 3.1 7.6 5.7 13.1 7.9s10.7 3.3 15.4 3.3c4.3 0 7.8-.9 10.4-2.8 3.3-2.4 5-5.4 5-9 0-4.1-1.8-7.8-5.3-11-2.3-2.4-6.3-5.4-11.9-9.2s-9.5-6.7-11.8-8.8c-9.2-8.1-13.8-18.4-13.8-30.8 0-7.2 1.7-14.1 5.1-20.5 7.7-14.6 21.8-22.6 42.3-23.9 11-.7 22.4.6 34.2 4.1z"/></svg>
