<svg viewBox="607.552 79.254 176.1 140.6" xmlns="http://www.w3.org/2000/svg"><path class="st0" d="M335.7-17v-3.6c0-18.3 0-36.6-.1-54.9 0-1.8.7-2.8 2.1-3.4 1.3-.6 2.5-1.2 3.7-1.9 4.9-2.6 9.8-5.2 14.7-7.7 3.1-1.6 6.1-3.2 9.2-4.8 3.8-2 7.5-3.9 11.3-5.9.6-.3 1.2-.7 1.9-1.1v83h-.1l-3.3-9c-2.5-6.7-5-13.4-7.5-20-.9-2.4-1.8-4.7-2.6-7.1-.3-.9-.7-1.2-1.7-1.2-3.9.1-7.8.1-11.8 0-.8 0-1.1.3-1.4 1-2.9 8.1-5.9 16.1-8.8 24.2-1.5 4-2.9 8-4.5 12-.1.3-.5.5-.8.7zm81.3 0c1-.3 2.1-.6 3.1-1 .2-.1.4-.4.4-.6-.6-2.3-1.1-4.7-1.7-7.1-1.4.3-2.6.6-3.9.8-4.5.8-9.1.9-13.4-1-4.1-1.8-6-5-6.1-9.4-.1-3.4 1-6.3 3.6-8.6 2-1.7 4.5-2.6 7.1-2.8 2.4-.2 4.8-.2 7.1 0 1.6.1 3.1.6 4.6 1 .6.2.9.1 1.1-.5.7-2.1 1.4-4.2 2.1-6.4.1-.2-.3-.8-.5-.8-1.5-.4-3.1-.9-4.6-1.1-3.7-.6-7.3-.7-11-.3-6.4.7-12.3 2.5-17.1 7.1-2.8 2.8-4.4 6.1-4.9 10 0 .3-.1.6-.3.8V-100c1.1.6 2.1 1.1 3.1 1.7 11.8 6.4 23.6 12.8 35.5 19.1.7.4.7.9.7 1.5v60.1c0 .6-.2.9-.8.9-1.3-.1-2.7 0-4 0-.1-.2-.1-.2-.1-.3m53.8 3.1v8.7H295.6v-7.6c0-.9.2-1.2 1.2-1.2h48.3zm-45.9-63.3c2.6 1.4 5 2.7 7.4 4 10.7 5.8 21.4 11.5 32.1 17.3 1.8.9 3.5 1.9 5.3 2.8.5.3.7.6.7 1.1v34.4c0 .2-.1.4-.1 1-.3-.4-.5-.6-.6-.8-1.8-4.7-3.7-9.4-5.5-14.1-2.4-6-4.8-12-7.1-18.1-.5-1.3-1.1-2.7-1.6-4.1-.2-.7-.6-.9-1.3-.9h-13c-.6 0-1 .2-1.2.8-1 2.5-1.9 5.1-2.9 7.6-1.9 5-3.9 10-5.9 15-1.8 4.5-3.5 9-5.3 13.6-.1.3-.5.5-.7.7-.1-.3-.4-.6-.4-.9v-58.7c0-.1 0-.3.1-.7m-92.8 1.3v57.6c0 1.4 0 1.4-1.4 1.4h-10.5c-.3 0-.6 0-1-.1 1.2-.4 2.5-.7 3.7-1.2 3-1.2 5.5-2.8 7.2-5.7 2.1-3.8 1-8.8-2.4-11.4-3.3-2.5-7.2-3.6-11-4.8q-3.15-.9-6-2.4c-1.6-.9-1.5-2.7.2-3.5 1.2-.5 2.5-.9 3.7-.9 3.8-.3 7.6.3 11.2 1.6.3.1.9-.1.9-.3.9-2.3 1.7-4.6 2.5-7 0-.1 0-.2-.1-.5-1.5-.4-3-.8-4.5-1.1-4-.8-8.1-1-12.2-.6-4.4.4-8.6 1.4-12.1 4.2-4.9 4-4.9 10.4.4 14.2 3.5 2.5 7.6 3.6 11.7 4.8 1.4.4 2.8 1 4.2 1.6 1 .5 1.7 1.3 1.6 2.5-.1 1.1-.7 1.9-1.7 2.2-1.2.4-2.4.8-3.6.9-4.1.3-8.2-.3-12.1-1.7-1.7-.6-3.3-1.7-4.9-2.6-.2-.1-.4-.6-.4-.9V-56c0-.3.2-.7.5-.8 2.1-1.2 4.3-2.3 6.5-3.4 3.9-2 7.7-4.1 11.6-6.1 1.7-.9 3.3-1.7 5-2.6 4.4-2.4 8.6-4.6 13-7" style="fill:#fff" transform="translate(312.552 179.554)"/><path class="st0" d="M456.7-16.9h-18.5c1-2.9 2-5.8 3.1-8.6.1-.3.6-.6.9-.6h10.6c.3 0 .8.2.9.5 1.1 2.8 2.1 5.5 3.2 8.3-.1.1-.2.2-.2.4M348.5-17c.8-2.4 1.6-4.8 2.4-7.1.2-.7.4-1.6.8-1.9.5-.3 1.4-.1 2.1-.1h8.3c.6 0 1 .2 1.2.8 1 2.7 1.9 5.5 2.9 8.3zm108.1-21.2c-1.2.9-2.4 1.8-3.5 2.7-1.8 1.4-1.8 1.4-1 3.5.5 1.3.9 2.6 1.3 3.9l-.2.2c-.3-.1-.5-.3-.8-.4-1.3-.9-2.5-1.8-3.7-2.8-.6-.5-1-.6-1.7 0-1.3 1.1-2.7 2.1-4.1 3.1-.1.1-.3.1-.7.3.3-.8.5-1.4.7-2.1.4-1.2.7-2.4 1.2-3.6.2-.6 0-1-.5-1.3-1.4-1-2.8-2-4.2-3.1l-.6-.3c.1-.1.1-.2.1-.3.2 0 .4-.1.6-.1 1.8 0 3.5.1 5.3 0 .3 0 .8-.4 1-.7.6-1.5 1-3.1 1.6-4.6l.4-.8c.3.4.5.7.6 1l1.5 4.2c.2.8.7 1 1.4 1 1.6-.1 3.1 0 4.7-.1.2 0 .4 0 .6.1zm-57.2 21.3h-16.9v-16.4c1.5 9.7 8.1 14.1 16.9 16.4M361-33.7h-7.5c1-3 1.9-5.8 2.8-8.7.2-.5.3-1 .5-1.5.1-.1.3-.3.4-.3s.3.2.3.3c1.2 3.3 2.3 6.6 3.5 10.2m-58.7 16.8h-6.6v-1.9c2.2.6 4.3 1.2 6.6 1.9m6.1 33.5c-1.2.6-2.6 1-4.2 1-1.4 0-2.7-.3-3.9-.8-1.3-.5-2.4-1.4-3.2-2.4-1.4-1.8-2.1-4.2-2.1-7.1 0-2.1.4-3.9 1.1-5.5.8-1.6 2-2.9 3.5-3.8 1.4-.9 3-1.3 4.7-1.3 1.4 0 2.6.3 3.9.8v5.2c-1-.6-2.1-.9-3.1-.9-1.3 0-2.3.4-3.1 1.3-.9.9-1.4 2.3-1.4 4.1s.5 3.1 1.4 4c.8.8 1.9 1.2 3.2 1.2 1.2 0 2.2-.3 3.1-1zm18.5-9.4c0 3.4-.7 5.9-2.2 7.7q-2.25 2.7-6.6 2.7c-5.8 0-8.7-3.5-8.8-10.5-.1-3.3.7-5.9 2.2-7.7q2.25-2.7 6.6-2.7c4.35 0 5.1.9 6.6 2.7 1.5 1.9 2.2 4.4 2.2 7.8m-5.3 0c0-3.6-1.1-5.4-3.5-5.4-1.1 0-2 .5-2.6 1.4s-.9 2.3-.9 4c0 3.6 1.2 5.4 3.4 5.4q3.6 0 3.6-5.4m21.8 10.1h-5.6l-4.6-11v11H328V-3h6.3l3.8 9.6V-3h5.3zm12.9-14.6c-1.4-.7-2.5-1.1-3.4-1.1-.5 0-1 .1-1.4.4-.5.3-.7.6-.7 1.1s.3 1 .8 1.4c.7.6 1.5 1.1 2.2 1.7.9.7 1.5 1.4 1.9 2 .6.8.8 1.7.8 2.8 0 1.7-.6 3.1-1.8 4.4-1.3 1.4-3.1 2.2-5.4 2.2-1.4 0-2.9-.3-4.7-.8v-5.4c.4.4 1.1.8 1.8 1.1.8.3 1.5.4 2.1.4s1.1-.1 1.4-.4c.5-.3.7-.8.7-1.3 0-.6-.3-1.1-.7-1.5-.3-.3-.9-.8-1.7-1.3s-1.3-.9-1.7-1.2c-1.3-1.1-1.9-2.6-1.9-4.3 0-1 .2-2 .7-2.9 1.1-2 3-3.1 5.9-3.3q2.25-.15 4.8.6zm14.1-.8h-4v15.3h-5V1.9h-3.8V-3h12.8zm15.3 15.4H380l-2.5-5.9h-1.3v5.9h-5.1V-3h7.2q3.3 0 5.1 1.8c1.3 1.3 1.9 3 1.9 5.1 0 1.2-.3 2.3-.8 3.4-.6 1.1-1.3 1.9-2.2 2.6zm-5.7-13q0-1.05-.6-1.8c-.5-.5-1.2-.8-2-.8h-1.3v5h1.3c1.7.1 2.6-.7 2.6-2.4m20.7 7.5c0 1.8-.7 3.3-2.2 4.4-1.3 1-3 1.4-4.9 1.4q-2.85 0-4.8-1.5c-1.4-1.1-2.2-2.5-2.2-4.3V-3h5.1v13.4c0 1.3.7 2 2 2 1.2 0 1.9-.7 1.9-2V-3h5.1zm14.7 4.8c-1.2.6-2.6 1-4.2 1-1.4 0-2.7-.3-3.9-.8-1.3-.5-2.4-1.4-3.2-2.4-1.4-1.8-2.1-4.2-2.1-7.1 0-2.1.4-3.9 1.1-5.5.8-1.6 2-2.9 3.5-3.8 1.4-.9 3-1.3 4.7-1.3 1.4 0 2.6.3 3.9.8v5.2c-1-.6-2.1-.9-3.1-.9-1.3 0-2.3.4-3.1 1.3-.9.9-1.4 2.3-1.4 4.1s.5 3.1 1.4 4c.8.8 1.9 1.2 3.2 1.2 1.2 0 2.2-.3 3.1-1v5.2zm13.7-14.7h-4v15.3h-5V1.9h-3.8V-3h12.8zm5.8 15.4h-5V-3h5zm18.8-10.1c0 3.4-.7 5.9-2.2 7.7q-2.25 2.7-6.6 2.7c-5.8 0-8.7-3.5-8.8-10.5-.1-3.3.7-5.9 2.2-7.7q2.25-2.7 6.6-2.7c4.35 0 5.1.9 6.6 2.7s2.2 4.4 2.2 7.8m-5.3 0c0-3.6-1.1-5.4-3.5-5.4-1.1 0-2 .5-2.6 1.4s-.9 2.3-.9 4c0 3.6 1.2 5.4 3.4 5.4q3.6 0 3.6-5.4m21.9 10.1h-5.6l-4.6-11v11H455V-3h6.3l3.8 9.6V-3h5.3zM316.2 40.2H311V26.9l-2.9 13.4h-5l-2.9-13.4v13.4h-5.1V20h8.5l2.1 11.6 2.5-11.6h8zm15.2 0h-5.3v-3.6h-3.7v3.6h-5.1V26.5c0-1.9.7-3.5 2-4.8s3-2 5-1.9q3.15 0 5.1 2.1 2.1 2.1 2.1 5.1v13.2zm-5.3-8.1v-5c0-.6-.2-1.1-.5-1.5s-.8-.7-1.3-.7-1 .2-1.3.7c-.3.4-.5 1-.5 1.5v5z" style="fill:#fff" transform="translate(312.552 179.554)"/><path class="st0" d="M343 24.9h-4v15.3h-5V24.9h-3.8V20H343zm11.6 15.3h-11.2V20h11.1v4.9h-6v2.9h5.8v4.7h-5.8v2.9h6.1zm15.6 0h-5.7l-2.5-5.9h-1.3v5.9h-5.1V20h7.2q3.3 0 5.1 1.8c1.3 1.3 1.9 3 1.9 5.1 0 1.2-.3 2.3-.8 3.4-.6 1.1-1.3 1.9-2.2 2.6zm-5.6-12.9q0-1.05-.6-1.8c-.5-.5-1.2-.8-2-.8h-1.3v5h1.3c1.6.1 2.5-.8 2.6-2.4M376 40.2h-5V20h5zm15.3 0H386v-3.6h-3.7v3.6h-5.1V26.5c0-1.9.7-3.5 2-4.8s3-2 5-1.9q3.15 0 5.1 2.1 2.1 2.1 2.1 5.1v13.2zm-5.4-8.1v-5c0-.6-.2-1.1-.5-1.5s-.8-.7-1.3-.7-1 .2-1.3.7c-.3.4-.5 1-.5 1.5v5zm17.6 8.1h-11.1V20h5.1v15.3h6.1v4.9zm20.8-5.8c.1 1.7-.6 3.1-1.9 4.2s-2.7 1.6-4.5 1.6h-6.4V20h6.2c1.5 0 2.9.5 4 1.6 1.1 1 1.8 2.3 1.8 3.9.1 1.8-.5 3.4-1.9 4.6 1.8 1 2.6 2.4 2.7 4.3m-5.5-8c0-.5-.2-.9-.5-1.2s-.7-.5-1.2-.5h-.5v3.4h.6c.5 0 .9-.1 1.2-.5.3-.3.4-.7.4-1.2m.3 7.2c0-.4-.2-.8-.5-1.1s-.6-.4-1-.4h-.9v3.3h1c.4 0 .8-.2 1.1-.5.2-.4.3-.8.3-1.3m20.2 6.6H434v-3.6h-3.7v3.6h-5.1V26.5c0-1.9.7-3.5 2-4.8s3-2 5-1.9q3.15 0 5.1 2.1 2.1 2.1 2.1 5.1v13.2zm-5.4-8.1v-5c0-.6-.2-1.1-.5-1.5s-.8-.7-1.3-.7-1 .2-1.3.7c-.3.4-.5 1-.5 1.5v5zm21.9 8.1h-5.6l-4.6-11v11h-5.1V20h6.3l3.8 9.6V20h5.3zm15.3 0h-5.9l-3.3-7.4v7.4h-5.1V20h5.1v7.8l3.4-7.8h5.1l-4.6 9.9z" style="fill:#fff" transform="translate(312.552 179.554)"/></svg>
