<svg viewBox="606.099 199.298 127.351 30.4" xmlns="http://www.w3.org/2000/svg"><path class="st0" d="M12.9 26.4V7.9c0-.6.2-.9.7-1.1l1.2-.6c1.6-.8 3.1-1.6 4.7-2.5 1-.5 2-1 2.9-1.5C23.6 1.6 24.8 1 26 .3l.6-.3v26.3c-.4-1-.7-1.9-1.1-2.9-.8-2.1-1.6-4.2-2.4-6.4-.3-.8-.6-1.5-.8-2.2-.1-.3-.2-.4-.5-.4h-3.7c-.2 0-.4.1-.4.3-.9 2.6-1.9 5.1-2.8 7.7-.5 1.3-.9 2.5-1.4 3.8 0 .1-.2.1-.2.2zm25.8 0c.3-.1.7-.2 1-.3.1 0 .1-.1.1-.2-.2-.7-.4-1.5-.5-2.2-.4.1-.8.2-1.2.2-1.4.2-2.9.3-4.2-.3S32 22 32 20.6c0-1.1.3-2 1.1-2.7.6-.5 1.4-.8 2.2-.9s1.5 0 2.3 0c.5 0 1 .2 1.5.3.2 0 .3 0 .3-.2.2-.7.5-1.3.7-2 0-.1-.1-.2-.2-.3-.5-.1-1-.3-1.5-.4-1.2-.2-2.3-.2-3.5-.1-2 .2-3.9.8-5.4 2.3-.9.9-1.4 1.9-1.6 3.2 0 .1 0 .2-.1.2V0c.3.2.7.3 1 .5 3.8 2 7.5 4.1 11.2 6.1.2.1.2.3.2.5v19c0 .2 0 .3-.3.3-.4 0-.8.1-1.2 0m17 1v2.8H.2v-2.3c0-.3.1-.4.4-.4h55.1zM41.2 7.3c.8.4 1.6.8 2.3 1.3 3.4 1.8 6.8 3.7 10.2 5.5.6.3 1.1.6 1.7.9.2.1.2.2.2.4v11.2l-.2-.2-1.8-4.5c-.8-1.9-1.5-3.8-2.3-5.7-.2-.4-.3-.9-.5-1.3-.1-.2-.2-.3-.4-.3h-4.1c-.2 0-.3.1-.4.2l-.9 2.4c-.6 1.6-1.2 3.2-1.9 4.8-.6 1.4-1.1 2.9-1.7 4.3 0 .1-.2.1-.2.2 0-.1-.1-.2-.1-.3V7.6c0-.1 0-.2.1-.3m-29.4.4V26c0 .5 0 .4-.4.4H7.8c.4-.1.8-.2 1.2-.4.9-.4 1.8-.9 2.3-1.8.7-1.2.3-2.8-.8-3.6-1-.8-2.3-1.1-3.5-1.5-.7-.2-1.3-.5-1.9-.8-.7-.3-.6-.9-.1-1.1q.6-.3 1.2-.3c1.2-.1 2.4.1 3.6.5.1 0 .3 0 .3-.1.3-.7.5-1.5.8-2.2v-.2c-.5-.1-.9-.3-1.4-.4-1.3-.2-2.6-.3-3.9-.2-1.4.1-2.7.4-3.8 1.3C.2 17 .2 19 1.8 20.3c1.1.8 2.4 1.1 3.7 1.5.4.1.9.3 1.3.5.3.1.5.4.5.8s-.2.6-.6.7l-1.2.3c-1.3.1-2.6-.1-3.8-.5-.5-.2-1-.5-1.5-.8-.1 0-.1-.2-.1-.3v-8.4c0-.1.1-.2.2-.2.7-.4 1.4-.7 2-1.1 1.2-.6 2.5-1.3 3.7-1.9.5-.3 1.1-.6 1.6-.8 1.4-.9 2.8-1.6 4.2-2.4" style="fill:#fff" transform="translate(605.999 199.298)"/><path class="st0" d="M51.2 26.4h-5.9c.3-.9.6-1.8 1-2.7 0-.1.2-.2.3-.2h3.3c.1 0 .3.1.3.1.3.9.7 1.8 1 2.6.1.1.1.2 0 .2m-34.3 0c.3-.8.5-1.5.8-2.2.1-.2.1-.5.3-.6s.5 0 .7 0h2.6c.2 0 .3.1.4.2.3.9.6 1.7.9 2.6zm34.3-6.7c-.4.3-.8.6-1.1.8-.6.4-.6.4-.3 1.1.2.4.3.8.4 1.2l-.1.1c-.1 0-.2-.1-.2-.1l-1.2-.9c-.2-.2-.3-.2-.5 0-.4.4-.9.7-1.3 1 0 0-.1 0-.2.1.1-.3.2-.5.2-.7.1-.4.2-.8.4-1.1.1-.2 0-.3-.2-.4-.5-.3-.9-.6-1.3-1-.1 0-.1-.1-.2-.1v-.1h1.9c.1 0 .3-.1.3-.2.2-.5.3-1 .5-1.5 0-.1.1-.1.1-.3.1.1.2.2.2.3.2.4.3.9.5 1.3.1.2.2.3.5.3h1.7zm-18.1 6.7h-5.4v-5.2c.5 3.1 2.6 4.5 5.4 5.2m-12.2-5.3h-2.4c.3-.9.6-1.9.9-2.8 0-.2.1-.3.1-.5l.1-.1s.1 0 .1.1c.5 1.1.8 2.2 1.2 3.3M2.3 26.4H.2v-.6z" style="fill:#fff" transform="translate(605.999 199.298)"/><path class="st0" d="M67 24.6c.1 1.2-.4 2.2-1.4 3.1-.9.8-2 1.1-3.2 1.1h-4.6V14.2h4.5c1.1 0 2.1.4 2.9 1.1.8.8 1.3 1.7 1.3 2.8.1 1.3-.4 2.5-1.4 3.3 1.3.8 1.9 1.8 1.9 3.2m-3.9-5.8c0-.3-.1-.6-.4-.9-.2-.2-.5-.4-.8-.4h-.4V20h.4c.3 0 .6-.1.9-.4s.3-.5.3-.8m.2 5.2c0-.3-.2-.6-.4-.8s-.5-.3-.8-.3h-.7v2.4h.7c.3 0 .6-.1.8-.4.3-.2.4-.5.4-.9M82 28.8h-3.9v-2.6h-2.7v2.6h-3.7v-10c0-1.4.5-2.5 1.4-3.5s2.2-1.4 3.6-1.4c1.5 0 2.7.5 3.7 1.5s1.5 2.2 1.5 3.7zm-3.8-5.9v-3.6c0-.4-.1-.8-.4-1.1s-.6-.5-1-.5-.7.2-1 .5c-.2.3-.3.7-.3 1.1v3.6zm19.9 5.9H94l-3.3-8v8H87V14.2h4.6l2.7 7v-7h3.9zm15.3 0h-4.3l-2.4-5.4v5.4H103V14.2h3.7v5.6l2.5-5.6h3.7l-3.4 7.2zm12.9-10.6c-1-.5-1.8-.8-2.5-.8-.4 0-.7.1-1 .3s-.5.5-.5.8.2.7.6 1c.5.4 1.1.8 1.6 1.2.6.5 1.1 1 1.4 1.5.4.6.6 1.3.6 2 0 1.2-.4 2.3-1.3 3.2-1 1-2.3 1.6-3.9 1.6-1 0-2.1-.2-3.4-.6v-3.9c.3.3.8.6 1.3.8s1.1.3 1.6.3c.4 0 .8-.1 1.1-.3s.5-.5.5-.9-.2-.8-.5-1.1q-.3-.3-1.2-.9t-1.2-.9a4.1 4.1 0 0 1-1.4-3.1c0-.7.2-1.4.5-2.1.8-1.5 2.2-2.3 4.3-2.4 1.1-.1 2.3.1 3.5.4z" style="fill:#fff" transform="translate(606.95 200.698)"/></svg>
